<?xml version="1.0" encoding="UTF-8"?><svg id="Layer_2" xmlns="http://www.w3.org/2000/svg" viewBox="0 0 275.55 92.02"><defs><style>.cls-1{fill:none;stroke:#77dd3c;stroke-miterlimit:10;stroke-width:.34px;}.cls-2{fill:#77dd3c;}.cls-2,.cls-3{stroke-width:0px;}.cls-3{fill:#fff;}</style></defs><g id="Layer_1-2"><path class="cls-2" d="M100.65,29.41s-5.94,2.29-11.11.37c-4.39-1.62-8.15-6.58-12.85-7.43-3.32-.6-9.55.57-13.51.68-.28,0-.35-.37-.11-.55,4.02-3.1,8.48-6.74,8.73-10.1.28-3.82,0-5.18-1.78-8.55-.09-.17.05-.41.24-.39,4.32.31,8.51,1.71,11.6,4.68,1.9,1.82,3.43,4.01,4.95,6.18,1.73,2.46,4.22,6.61,6.22,8.84,1.95,2.18,7.63,6.28,7.63,6.28Z"/><path class="cls-2" d="M147.74,87.25v-10.48h2.72l5.03,6.41v-6.41h2.71v10.48h-2.71l-5.03-6.41v6.41h-2.72Z"/><path class="cls-2" d="M170.33,85.43h-3.89l-.63,1.82h-2.9l3.99-10.48h2.97l3.99,10.48h-2.9l-.63-1.82ZM169.61,83.36l-1.22-3.49-1.22,3.49h2.45Z"/><path class="cls-2" d="M182.05,79.08v8.17h-2.72v-8.17h-2.24v-2.31h7.2v2.31h-2.24Z"/><path class="cls-2" d="M191.69,76.77v10.48h-2.72v-10.48h2.72Z"/><path class="cls-2" d="M196.89,82.01c0-.78.14-1.5.43-2.18.29-.67.69-1.26,1.2-1.76.51-.5,1.12-.89,1.83-1.17.71-.28,1.49-.42,2.34-.42s1.62.14,2.33.42c.71.28,1.33.67,1.84,1.17.51.5.92,1.09,1.2,1.76s.43,1.4.43,2.18-.14,1.5-.43,2.17-.69,1.26-1.2,1.76c-.51.5-1.13.89-1.84,1.17-.71.28-1.49.42-2.33.42s-1.63-.14-2.34-.42c-.71-.28-1.32-.67-1.83-1.17-.51-.5-.91-1.09-1.2-1.76-.29-.67-.43-1.4-.43-2.17ZM199.74,82.01c0,.42.08.8.24,1.15.16.35.37.66.64.92.27.26.58.46.94.6s.73.22,1.13.22.78-.07,1.13-.22.67-.34.95-.6c.27-.26.49-.56.65-.92.16-.35.24-.74.24-1.15s-.08-.8-.24-1.15c-.16-.35-.37-.66-.65-.92-.27-.26-.59-.46-.95-.6s-.73-.22-1.13-.22-.78.07-1.13.22-.67.35-.94.6c-.27.26-.48.57-.64.92-.16.35-.24.74-.24,1.15Z"/><path class="cls-2" d="M213.69,87.25v-10.48h2.72l5.03,6.41v-6.41h2.71v10.48h-2.71l-5.03-6.41v6.41h-2.72Z"/><path class="cls-2" d="M236.28,85.43h-3.89l-.63,1.82h-2.9l3.99-10.48h2.97l3.99,10.48h-2.9l-.63-1.82ZM235.55,83.36l-1.22-3.49-1.22,3.49h2.45Z"/><path class="cls-2" d="M247.2,76.77v8.17h3.27v2.31h-5.99v-10.48h2.72Z"/><path class="cls-1" d="M147.74,87.25v-10.48h2.72l5.03,6.41v-6.41h2.71v10.48h-2.71l-5.03-6.41v6.41h-2.72Z"/><path class="cls-1" d="M170.33,85.43h-3.89l-.63,1.82h-2.9l3.99-10.48h2.97l3.99,10.48h-2.9l-.63-1.82ZM169.61,83.36l-1.22-3.49-1.22,3.49h2.45Z"/><path class="cls-1" d="M182.05,79.08v8.17h-2.72v-8.17h-2.24v-2.31h7.2v2.31h-2.24Z"/><path class="cls-1" d="M191.69,76.77v10.48h-2.72v-10.48h2.72Z"/><path class="cls-1" d="M196.89,82.01c0-.78.14-1.5.43-2.18.29-.67.69-1.26,1.2-1.76.51-.5,1.12-.89,1.83-1.17.71-.28,1.49-.42,2.34-.42s1.62.14,2.33.42c.71.28,1.33.67,1.84,1.17.51.5.92,1.09,1.2,1.76s.43,1.4.43,2.18-.14,1.5-.43,2.17-.69,1.26-1.2,1.76c-.51.5-1.13.89-1.84,1.17-.71.28-1.49.42-2.33.42s-1.63-.14-2.34-.42c-.71-.28-1.32-.67-1.83-1.17-.51-.5-.91-1.09-1.2-1.76-.29-.67-.43-1.4-.43-2.17ZM199.74,82.01c0,.42.08.8.24,1.15.16.35.37.66.64.92.27.26.58.46.94.6s.73.22,1.13.22.78-.07,1.13-.22.67-.34.95-.6c.27-.26.49-.56.65-.92.16-.35.24-.74.24-1.15s-.08-.8-.24-1.15c-.16-.35-.37-.66-.65-.92-.27-.26-.59-.46-.95-.6s-.73-.22-1.13-.22-.78.07-1.13.22-.67.35-.94.6c-.27.26-.48.57-.64.92-.16.35-.24.74-.24,1.15Z"/><path class="cls-1" d="M213.69,87.25v-10.48h2.72l5.03,6.41v-6.41h2.71v10.48h-2.71l-5.03-6.41v6.41h-2.72Z"/><path class="cls-1" d="M236.28,85.43h-3.89l-.63,1.82h-2.9l3.99-10.48h2.97l3.99,10.48h-2.9l-.63-1.82ZM235.55,83.36l-1.22-3.49-1.22,3.49h2.45Z"/><path class="cls-1" d="M247.2,76.77v8.17h3.27v2.31h-5.99v-10.48h2.72Z"/><path class="cls-2" d="M147.74,87.25v-10.48h2.72l5.03,6.41v-6.41h2.71v10.48h-2.71l-5.03-6.41v6.41h-2.72Z"/><path class="cls-2" d="M170.33,85.43h-3.89l-.63,1.82h-2.9l3.99-10.48h2.97l3.99,10.48h-2.9l-.63-1.82ZM169.61,83.36l-1.22-3.49-1.22,3.49h2.45Z"/><path class="cls-2" d="M182.05,79.08v8.17h-2.72v-8.17h-2.24v-2.31h7.2v2.31h-2.24Z"/><path class="cls-2" d="M191.69,76.77v10.48h-2.72v-10.48h2.72Z"/><path class="cls-2" d="M196.89,82.01c0-.78.14-1.5.43-2.18.29-.67.69-1.26,1.2-1.76.51-.5,1.12-.89,1.83-1.17.71-.28,1.49-.42,2.34-.42s1.62.14,2.33.42c.71.28,1.33.67,1.84,1.17.51.5.92,1.09,1.2,1.76s.43,1.4.43,2.18-.14,1.5-.43,2.17-.69,1.26-1.2,1.76c-.51.5-1.13.89-1.84,1.17-.71.28-1.49.42-2.33.42s-1.63-.14-2.34-.42c-.71-.28-1.32-.67-1.83-1.17-.51-.5-.91-1.09-1.2-1.76-.29-.67-.43-1.4-.43-2.17ZM199.74,82.01c0,.42.08.8.24,1.15.16.35.37.66.64.92.27.26.58.46.94.6s.73.22,1.13.22.78-.07,1.13-.22.67-.34.95-.6c.27-.26.49-.56.65-.92.16-.35.24-.74.24-1.15s-.08-.8-.24-1.15c-.16-.35-.37-.66-.65-.92-.27-.26-.59-.46-.95-.6s-.73-.22-1.13-.22-.78.07-1.13.22-.67.35-.94.6c-.27.26-.48.57-.64.92-.16.35-.24.74-.24,1.15Z"/><path class="cls-2" d="M213.69,87.25v-10.48h2.72l5.03,6.41v-6.41h2.71v10.48h-2.71l-5.03-6.41v6.41h-2.72Z"/><path class="cls-2" d="M236.28,85.43h-3.89l-.63,1.82h-2.9l3.99-10.48h2.97l3.99,10.48h-2.9l-.63-1.82ZM235.55,83.36l-1.22-3.49-1.22,3.49h2.45Z"/><path class="cls-2" d="M247.2,76.77v8.17h3.27v2.31h-5.99v-10.48h2.72Z"/><path class="cls-3" d="M77.59,45.07c1.13,0,2.17-1.09,2.37-2.49.09-.8-.11-1.53-.54-2.01-.3-.34-.7-.52-1.14-.52-1.1,0-2.12,1.09-2.32,2.48-.11.79.06,1.52.48,2,.3.34.71.53,1.15.53Z"/><path class="cls-3" d="M136.4,75.01c-1.76,1.68-3.99,2.9-6.8,3.74-3.64,1.05-7.85,1.35-12.85.92-4.4-.41-9.29-1.34-14.97-2.85-1.89-.51-3.79-1.09-5.64-1.66-1.79-.55-3.63-1.11-5.46-1.61.69-2,1.4-3.98,2.11-5.96,1.73-4.85,3.52-9.87,5.03-14.94l.03-.1c.48-1.61,1.36-4.59.19-6.16-.48-.64-1.25-.97-2.3-.97-.14,0-.22.06-.26.12-.06.08-.07.2-.03.29.03.23.06.55.08.88-.87-.84-2.02-1.29-3.29-1.29-2.07,0-4.45,1.27-6.51,3.48-2.7,2.78-4.74,6.81-5.5,10.55-1.74,3.28-3.9,6.2-5.67,6.23,0,0-.02,0-.02,0-.31,0-.53-.11-.69-.33-.72-1,0-4.09.91-6.65l2.77-7.53c.83-2.32.9-3.84.24-4.78-.46-.65-1.27-.98-2.41-.98-.11,0-.2.03-.26.1-.09.1-.08.23-.08.3v.08c.3,1.26-.25,3.46-.86,5.1l-2.45,6.6c-.03.09-.05.16-.08.25-.94,2.29-3.6,7.41-8.75,7.93-1.41.14-2.52-.17-3.3-.94-1.3-1.28-1.39-3.44-1.3-4.76,2.84.52,5.92-.72,8.28-3.34,1.41-1.58,2.91-4.18,2.91-6.73,0-2.78-1.65-4.58-4.22-4.58-1.9,0-3.71.97-5.55,2.97-2.55,2.85-4.4,7.19-4.71,11.06-.26,3.14.39,5.67,1.9,7.32,1.27,1.39,3.09,2.11,5.4,2.12h.09c2.84,0,5.67-1.44,7.87-3.86.2,1.92,1.23,3.86,3.62,3.86,2.58,0,4.76-2.12,6.29-4.2.42,1.79,1.34,3.1,2.72,3.76,1.88.9,4.34.42,6.68-1.26-.21.58-.43,1.16-.64,1.74-.48,1.28-.97,2.6-1.42,3.93-4.92-.86-8.96.1-12,2.85-2.59,2.36-4.4,6.42-4.4,9.89,0,2.97,1.43,6.43,5.46,6.43,6.64,0,10.49-8.18,13.1-15.38,1.47.4,2.96.86,4.41,1.3,1.01.31,2.02.62,3.03.91,7.71,2.27,13.89,3.56,19.43,4.07,5.91.5,10.97.05,15.04-1.35,3.41-1.17,5.41-3.46,5.49-6.28,0-.16-.07-.28-.18-.35-.12-.06-.27-.05-.43.06ZM63.67,49.2c.93-.57,1.67-.71,2.1-.39.47.35.56,1.24.24,2.38-.52,1.71-1.65,3.35-3.02,4.38h0c-1.3,1.08-2.82,1.55-4.19,1.3.74-2.72,2.67-6.27,4.89-7.66ZM76.48,88.75s-.03,0-.04,0c-1.4-.03-2.11-1.1-2.11-3.17,0-2.59,1.39-5.74,3.3-7.47h0c1.68-1.53,3.89-2.3,6.61-2.3.68,0,1.39.05,2.12.14-1.46,4.02-4.75,12.79-9.88,12.79ZM89.17,63.2c-1.86,1.89-3.69,2.78-4.79,2.34-.81-.33-1.24-1.43-1.24-3.17,0-4.17,2.53-8.74,4.88-11.22,1.19-1.21,2.88-2.44,4.18-2.44.22,0,.43.04.63.12.81.33,1.22,1.39,1.22,3.16,0,4.17-2.53,8.74-4.88,11.21Z"/><path class="cls-3" d="M270.09,22.29c-6.64,0-10.49,8.18-13.1,15.38-1.53-.4-3.09-.88-4.59-1.35-.95-.29-1.9-.59-2.84-.87-7.75-2.28-13.93-3.56-19.42-4.02-5.76-.54-10.82-.1-15.04,1.3-3.41,1.17-5.41,3.46-5.49,6.28,0,.22.1.32.18.36.07.04.21.08.44-.07,1.86-1.73,4.26-3.02,7.12-3.83,3.52-.96,7.62-1.21,12.53-.78,4.26.35,9,1.26,14.92,2.85h0c1.97.52,3.94,1.11,5.85,1.69,1.73.52,3.52,1.06,5.29,1.54l-.81,2.27c-.58,1.63-1.15,3.25-1.73,4.84-.88-1.57-2.38-2.47-4.17-2.47-2.31,0-4.72,1.36-6.98,3.95-2.18,2.49-3.83,5.57-4.7,8.56-1.16,3.07-2.86,6.02-6.31,6.14-.53,0-1.02-.1-1.44-.29,2.69-3.49,4.42-8.09,4.42-11.79,0-3.27-1.57-6.57-5.09-6.57-2.07,0-4.4,1.22-6.56,3.43-2.21,2.3-3.97,5.42-4.96,8.51-1.17,3.26-2.86,6.58-6.52,6.71-.53,0-1.02-.1-1.44-.29,2.69-3.49,4.42-8.09,4.42-11.79,0-3.27-1.57-6.57-5.09-6.57-2.07,0-4.4,1.22-6.56,3.43-1.93,2.01-3.51,4.64-4.54,7.34,0,0-.02,0-.02,0-.89,1.96-4.61,9.45-7.34,9.49-.3,0-.55-.1-.71-.32-.6-.83-.24-3.32.95-6.65.19-.52.44-1.17.72-1.88,1-2.57,2.25-5.77,2.25-7.42,0-2.61-1.31-3.98-3.8-3.98-1.78,0-3.61.8-5.45,2.38,1.5-4.14,3.01-8.45,3.98-12.23.67-2.39.63-4.09-.1-5.06-.48-.64-1.26-.96-2.3-.96-.11,0-.21.05-.26.14-.05.09-.06.2-.02.3.19,1.07.06,2.7-.37,4.46-1.33,5.09-3.26,10.4-5.13,15.53-.52,1.42-1.03,2.83-1.52,4.21h0c-.47,1.34-.93,2.6-1.38,3.78-1.18,2.46-3.95,7.68-6.41,7.72-.3,0-.52-.1-.67-.3-.29-.37-.53-1.29,0-3.61,1.14-5.03,2.76-9.06,5.19-12.97.13-.22.1-.38.05-.47-.04-.07-.15-.2-.4-.2-.46,0-1,.01-1.64.04-2.38.09-5.98.23-7.43-1.23-.48-.49-.7-1.12-.66-1.93,0-.58.24-1.23.66-1.74.1-.15.12-.33.05-.46-.06-.11-.17-.17-.26-.17h0c-.98-.19-1.97,0-2.66.55h-.01c-1.04.95-1.19,2.88-.81,4.32-1.04,5.17-2.29,10.12-4.67,13.99-1.06,1.46-2.48,2.5-4.49,2.57-.53,0-1.02-.1-1.45-.29,2.69-3.49,4.42-8.1,4.42-11.79,0-3.27-1.57-6.57-5.09-6.57-2.07,0-4.4,1.22-6.56,3.43-2.2,2.3-3.97,5.41-4.96,8.49-.87,2.34-2.48,6.59-6.57,6.73-.51,0-1.03-.1-1.45-.29,1.41-1.9,2.61-4.11,3.3-6.09.99-2.71,1.77-7.73-.12-10.43-.86-1.22-2.15-1.84-3.85-1.84-1.35,0-2.79.51-4.31,1.52,1.37-3.8,2.76-7.77,3.72-11.38.64-2.45.58-4.11-.16-5.07-.49-.63-1.26-.95-2.29-.95-.11,0-.21.05-.26.14-.05.09-.06.2-.02.3.19,1.07.06,2.7-.37,4.46-1.33,5.09-3.26,10.4-5.13,15.53-.52,1.42-1.03,2.83-1.52,4.21-.3.85-.54,1.64-.75,2.39,0,0,0,0-.01,0-.89,1.96-3.7,9.05-6.42,9.1-.29,0-.55-.1-.71-.32-.6-.83-.24-3.32.95-6.65.19-.52.44-1.17.72-1.88,1-2.57,2.25-5.77,2.25-7.42,0-2.61-1.31-3.98-3.8-3.98-1.78,0-3.61.8-5.45,2.38,1.5-4.14,3.01-8.45,3.98-12.23.67-2.39.63-4.09-.1-5.06-.48-.64-1.26-.96-2.3-.96-.11,0-.21.05-.26.14-.05.09-.06.2-.02.3.19,1.07.06,2.7-.37,4.46-1.33,5.09-3.26,10.4-5.13,15.53-.52,1.42-1.03,2.83-1.52,4.21h0c-1.71,4.84-2.76,8.14-3.47,10.3-.71,1.9-1.62,3.05-2.66,3.3-.1.02-.18.08-.22.17-.05.12,0,.25.06.34.49.6,1.62.71,2.21.56,1.66-.4,2.61-1.7,3.34-3.41.09-.18.16-.35.2-.48,2.13-6.01,5.36-15.07,10.97-16.39.41-.1.7-.05.88.14.21.23.48.9-.15,2.83-.49,1.52-1.21,3.41-1.74,4.78-.2.53-.37.97-.47,1.26-.99,2.69-1.49,4.95-1.49,6.71,0,2.22.96,4.59,3.66,4.59,2.97,0,4.93-2.17,6.21-4.27.21,1.34.6,1.93.6,1.93.88,1.49,2.35,2.34,4.07,2.34,1.87,0,3.82-.89,5.65-2.57.93.65,2.11,1,3.35,1,2.24,0,4.47-.99,6.13-2.71.07-.07.13-.15.2-.23.51,2.37,1.96,4.51,4.88,4.51,1.78,0,3.73-.89,5.65-2.57.93.65,2.1,1,3.31,1,.95,0,1.9-.19,2.81-.52.03,0,.05,0,.08,0,.98-.05,2.03-.62,2.76-1.5.29-.36.56-.71.83-1.05.43-.5.81-1.03,1.12-1.59,2.43-3.75,3.38-7.31,4.72-12.16,2.05.97,4.45.94,5.54.87-2.06,4.2-3.92,8.87-3.92,12.93,0,2.22.96,4.59,3.66,4.59,4.16,0,7.27-5.56,8.12-7.27,2.68-5.43,5.14-11.73,10.76-13.05.4-.1.7-.05.88.14.21.23.48.9-.14,2.83-.5,1.53-1.25,3.5-1.75,4.8-.2.52-.36.95-.47,1.24-.99,2.7-1.49,4.95-1.49,6.71,0,2.22.96,4.59,3.66,4.59,2.96,0,5.38-2.81,6.84-5.05.39,2.58,1.84,5.05,4.97,5.05,1.78,0,3.73-.89,5.65-2.57.93.65,2.1,1,3.31,1,2.25,0,4.49-.98,6.14-2.69.07-.07.13-.15.2-.23.51,2.37,1.96,4.49,4.87,4.49,1.78,0,3.73-.89,5.65-2.57.93.65,2.1,1,3.31,1,2.25,0,4.49-.98,6.14-2.69.06-.06.11-.12.16-.19.52,2.35,1.99,4.45,4.91,4.45,2.38,0,4.82-1.68,6.42-3.36.39,2.14,1.68,3.36,3.6,3.36,4.16,0,7.27-5.56,8.12-7.27.41-.82.86-2.12.76-3.07-.05-.45-.34-1.61-1.08-1.61-.19,0-.34.16-.41.3-.89,1.96-4.02,8.37-6.75,8.42,0,0-.02,0-.02,0-.3,0-.53-.11-.69-.33-.6-.83-.24-3.32.95-6.66.92-2.57,1.88-5.16,2.81-7.67,1.15-3.11,2.34-6.33,3.46-9.53,4.94.81,8.98-.16,12-2.89,2.59-2.36,4.4-6.4,4.4-9.84,0-2.99-1.43-6.48-5.46-6.48ZM127.25,63.6c-1.74,1.66-3.52,2.35-4.56,1.77-1.07-.59-1.33-2.43-.74-5.18.88-4.21,4.01-9.74,7.28-11.26.46-.22.89-.33,1.28-.33.46,0,.86.15,1.19.45,1.24,1.12,1.25,4.08.02,7.52-.15.44-.39.96-.65,1.5,0,0-1.91,3.84-3.82,5.52ZM147.47,63.6c-1.68,1.59-3.33,2.32-4.34,1.89-.81-.34-1.23-1.44-1.23-3.17,0-4.04,2.48-8.68,4.93-11.17,1.49-1.56,3.03-2.47,4.13-2.47.22,0,.42.03.6.11.82.32,1.25,1.43,1.25,3.19,0,1.92-.56,4.16-1.58,6.33-.49,1.03-2.18,3.87-3.75,5.28ZM205.39,63.6c-1.68,1.59-3.34,2.32-4.34,1.89-.81-.34-1.23-1.44-1.23-3.17,0-4.04,2.48-8.68,4.93-11.17,1.49-1.56,3.03-2.47,4.13-2.47.22,0,.42.03.6.11.82.32,1.25,1.43,1.25,3.19,0,1.92-.56,4.16-1.58,6.33-.63,1.15-2.03,3.69-3.75,5.28ZM225.55,63.6c-1.68,1.59-3.34,2.32-4.34,1.89-.81-.34-1.23-1.44-1.23-3.17,0-4.04,2.48-8.68,4.93-11.17,1.48-1.56,3.03-2.47,4.13-2.47.22,0,.42.03.6.11.82.33,1.25,1.43,1.25,3.19,0,1.92-.56,4.16-1.58,6.33-.64,1.27-1.97,3.54-3.75,5.28ZM250.28,56.3l-.27.69c-.9,2.28-2.29,4.53-3.84,6.16-1.48,1.53-3.53,2.85-4.79,2.35-.81-.33-1.24-1.43-1.24-3.18,0-4.23,2.8-9.22,5.43-11.77,1.28-1.24,2.54-1.92,3.51-1.92.24,0,.47.04.67.13.85.36,1.29,1.47,1.29,3.22,0,1.35-.27,2.85-.77,4.32ZM268.98,36.18c-2.18,1.95-5.12,2.67-8.73,2.16,1.46-4.02,4.75-12.79,9.84-12.79.01,0,.03,0,.04,0,1.79.04,2.16,1.77,2.16,3.22,0,2.57-1.39,5.69-3.3,7.42Z"/><path class="cls-3" d="M45.53,72.14c.05-.16.1-.32.18-.52,4.78-13.34,17.66-49.1,22.78-63.27,1.54-4.26,3.38-6.67,5.17-6.79.12,0,.22-.05.27-.14.08-.12.05-.28,0-.39-.43-.75-1.64-1.02-2.3-1.02-3.52,0-5.17,4.48-6.16,7.16l-.03.08c-1.97,5.44-5.99,16.6-9.87,27.39-3.73,10.38-7.59,21.1-9.68,26.87-.27-3.57-.85-7.38-1.42-11.06l-.1-.64c-1.07-6.85-2.19-13.93-1.33-19.76.38-2.74,1.35-6.04,3.77-6.2.12,0,.22-.05.27-.14.08-.12.05-.28,0-.39-.43-.75-1.64-1.02-2.3-1.02-1.08,0-2.12.47-3,1.35-1.76,1.72-4.7.78-6.85.09l-.44-.15c-1.91-.64-3.88-1.3-6.28-1.3-6.7,0-12.57,4.77-14.6,11.87-1.28,4.58-.51,8.74,2.04,11.14,2.05,2,4.96,2.59,8.01,1.62,2.4-.81,3.54-2.8,3.13-5.47-.06-.18-.17-.23-.23-.24-.07-.01-.19-.02-.33.12-.77.82-1.57,1.47-2.39,1.95-1.66.87-4.22,1.31-5.96-.34-1.96-1.83-1.85-5.27-1.1-7.88,1.36-4.71,5.43-9.46,11.44-9.46,1.88,0,3.69.6,5.45,1.18,1.8.59,3.67,1.2,5.56,1.15l-.09.22c-.2.5-.4.97-.53,1.39-3.21,8.84-6.6,18.2-10.06,27.83-3.46,9.5-8.02,15.58-13.56,18.07-2.78,1.26-6.08,1.29-8.8.07-2.41-1.08-4.16-2.99-4.91-5.4-.02-.05-.07-.21-.23-.24-.17-.03-.26.13-.3.19-1.61,2.35-.32,5.49,1.8,7.06,2.13,1.62,4.77,2.43,8.06,2.49,8.74,0,16-7.31,21.01-21.13,2.57-7.02,5.23-14.37,7.91-21.85.17,4.22.86,8.72,1.54,13.08l.14.93c.68,4.15,2.54,16.67.92,21.4-2.83.25-4.95,1.3-4.95,2.56,0,1.45,2.8,2.62,6.25,2.62s6.25-1.17,6.25-2.62c0-1.13-1.72-2.09-4.12-2.46Z"/></g></svg>